<svg width="85" height="85" viewBox="0 0 85 85" fill="none" xmlns="http://www.w3.org/2000/svg">
<path d="M30.1042 58.7421L16.6707 45.3086C16.0027 44.6635 15.1081 44.3065 14.1795 44.3145C13.2509 44.3226 12.3626 44.6951 11.7059 45.3517C11.0493 46.0084 10.6768 46.8967 10.6687 47.8253C10.6606 48.7539 11.0176 49.6486 11.6628 50.3165L27.6003 66.254C28.2644 66.918 29.1651 67.291 30.1042 67.291C31.0433 67.291 31.944 66.918 32.6082 66.254L71.5665 27.2957C72.2117 26.6277 72.5686 25.7331 72.5606 24.8045C72.5525 23.8759 72.18 22.9876 71.5234 22.3309C70.8667 21.6743 69.9784 21.3018 69.0498 21.2937C68.1212 21.2856 67.2266 21.6426 66.5586 22.2878L30.1042 58.7421Z" fill="#9EE0C3"/>
</svg>
